<svg width="16" height="16" viewBox="0 0 16 16" fill="none" xmlns="http://www.w3.org/2000/svg">
<g id="running-stick-figure-svgrepo-com 1" clip-path="url(#clip0_151_131)">
<g id="Group">
<g id="Group_2">
<path id="Vector" d="M14.8234 4.7254C14.6138 4.47501 14.2403 4.44209 13.9899 4.65089L12.349 6.02935L11.5943 4.15964C11.5675 4.08946 11.5267 4.03054 11.4799 3.97856C11.3257 3.63546 11.058 3.34088 10.6889 3.17019C10.5286 3.09742 10.3631 3.05843 10.1977 3.03937C10.1613 3.02031 10.1283 2.99518 10.0868 2.98218L7.19901 2.17729C7.03699 2.1331 6.87411 2.16169 6.74068 2.23967C6.58213 2.29339 6.4461 2.40862 6.38112 2.57584L5.29378 5.37174C5.17594 5.67585 5.3267 6.01895 5.63168 6.13852C5.93492 6.25635 6.27888 6.10473 6.39758 5.79975L7.31598 3.43878L8.63119 3.80441C8.59913 3.85639 8.56447 3.90491 8.53848 3.96036L6.85245 7.61488C6.82819 7.6686 6.81519 7.72318 6.79786 7.77863L4.7488 11.2139L1.31955 12.3611C0.931399 12.6513 0.84909 13.198 1.13587 13.5862C1.42439 13.9752 1.97282 14.0575 2.36011 13.7707L5.86907 12.5621C5.97651 12.4841 6.05448 12.3819 6.1134 12.2718C6.15759 12.225 6.20784 12.1878 6.24163 12.1297L7.46327 10.0815L9.63189 11.9296L7.31165 14.5444C6.99194 14.9049 7.024 15.4602 7.38616 15.7791C7.74745 16.1005 8.30109 16.0667 8.62252 15.7046L11.5181 12.4425C11.6082 12.342 11.6619 12.2259 11.6983 12.1046C11.7199 12.0388 11.7199 11.9703 11.7251 11.9019C11.7251 11.8672 11.7381 11.836 11.7355 11.804C11.7277 11.5648 11.6307 11.3326 11.4349 11.1672L9.43955 9.46553C9.58337 9.32864 9.70554 9.16575 9.79391 8.97428L11.0866 6.17491L11.5007 7.27785C11.5181 7.37575 11.551 7.47192 11.6203 7.5525C11.6827 7.62701 11.7624 7.67639 11.8473 7.71105C11.856 7.71538 11.8664 7.71625 11.8768 7.71885C11.9305 7.73791 11.9851 7.7561 12.0414 7.7587C12.1081 7.76477 12.1757 7.7561 12.2441 7.73704C12.2459 7.73618 12.2467 7.73618 12.2467 7.73618C12.2649 7.73184 12.2831 7.73531 12.3013 7.72751C12.3975 7.69112 12.4711 7.62961 12.5344 7.5577L14.8893 5.55889C15.1397 5.34835 15.034 4.97579 14.8234 4.7254Z" fill="white"/>
<path id="Vector_2" d="M11.8447 3.30102C12.7562 3.30102 13.4952 2.56206 13.4952 1.65051C13.4952 0.738959 12.7562 0 11.8447 0C10.9331 0 10.1942 0.738959 10.1942 1.65051C10.1942 2.56206 10.9331 3.30102 11.8447 3.30102Z" fill="white"/>
</g>
</g>
</g>
<defs>
<clipPath id="clip0_151_131">
<rect width="16" height="16" fill="white"/>
</clipPath>
</defs>
</svg>
